<?xml version="1.0" encoding="utf-8"?>
<!-- Generator: Adobe Illustrator 21.1.0, SVG Export Plug-In . SVG Version: 6.00 Build 0)  -->
<svg version="1.1" id="Layer_1" xmlns="http://www.w3.org/2000/svg" xmlns:xlink="http://www.w3.org/1999/xlink" x="0px" y="0px"
	 viewBox="0 0 76.4 143.3" style="enable-background:new 0 0 76.4 143.3;" xml:space="preserve">
<style type="text/css">
	.st0{clip-path:url(#SVGID_2_);fill-rule:evenodd;clip-rule:evenodd;}
</style>
<g>
	<g>
		<defs>
			<rect id="SVGID_1_" width="76.4" height="117.6"/>
		</defs>
		<clipPath id="SVGID_2_">
			<use xlink:href="#SVGID_1_"  style="overflow:visible;"/>
		</clipPath>
		<path class="st0" d="M53.1,0h0.8c1.4,0.3,1.1,2.6,1.2,4.6c0.1,1.7,0.1,3.2,0.2,4.5c0.1,1.3,0.4,2.8,0.5,4.2
			c0.1,1.5,0.2,2.9,0.5,4.2c0.5,2.5,1,5.3,1.2,8.2c0.1,2.1,0.3,4.4,0.5,6.6c0,0.7,0,1.5,0.2,2.1c0.2,0.7,0.8,1.4,1,2
			c0.4,1.1,0.8,2.4,1.2,3.7c0.4,1.2,0.9,2.4,1.1,3.8c0.8,4.5,0.5,9.2-0.1,13.5c-0.4,2.9-0.7,5.7-1.1,8.6c-0.2,1.5-0.4,2.9-0.5,4.3
			c-0.2,2.1-0.1,4.5-0.1,6.4c0,2.1-0.7,4-1,6c-0.3,1.9-0.3,4.2-0.4,6.4c-0.1,2.2,0,4.5,0.1,6.7c0.1,2.2,0.1,4.6-0.7,6
			c-0.6,1.1-3,2.6-4.5,1.5c-1.5-1.2-0.7-5-0.3-7.2c0.6-3.5-0.2-7.4,0.1-11.1c0.2-1.8,0.4-3.6,0.5-5.4c0.2-3.8-0.2-7.2-1-10.5
			c-0.5-2.2-1.5-4.5-2.6-6.3c-0.3-0.5-0.9-1.6-1.2-1.7c-0.9-0.2-2,0.9-2.3,1.5c-1.2,2.3-1,6.3-0.8,9.6c0.3,3.6-0.2,7.2-0.1,10.5
			c0,1,0.2,2.1,0.3,3.3c0.2,3.2,0.1,7.1,0.4,10.4c0.2,2,0.6,4.2,1,6.2c0.4,2.1,0.5,4.4,1,6.1c0.2,0.7,0.6,1.3,0.9,1.9
			c0.2,0.5,0.7,1.5,0.5,2.3c-0.1,0.6-0.7,1-1.3,1.3c-2.5,1.2-7.5,0.9-8.4-1.6c-1.3-3.6,1-8.3-0.9-11.4c-0.5-0.1-0.9,0.4-1.3,0.4
			c-0.3,0-0.4-0.2-0.7-0.2c-1.8,0.4-3.1-0.6-2.7-2.6c0.3-1.4,1.8-2.3,2.3-3.1c-0.8-1.9,1.3-2.7,1.7-4.2c0-3-1.2-5.2-2.1-7.4
			c-0.4-0.8-0.8-1.8-1.1-2.8c-0.4-1.4-0.5-2.8-1.6-3.4c-0.7-0.4-1.6-0.5-2.6-0.6c-2.5-0.3-6.3-0.9-8.8-0.1c-1,0.3-1.5,1.5-2.5,1.7
			c-0.7,0.2-1.8,0.1-2.7,0c-1.8-0.1-3.3-0.4-4.5-0.5c-0.6-0.1-1.9,0-2.1-0.3c-0.3-0.4-0.2-8.6-0.6-12.3C9.1,63.8,8.9,61.8,9,60
			c0.2-3.8-0.4-7.7-0.8-11.1c-0.2-1.7-0.8-3.1-1.3-4.7c-0.9-3-0.8-7.4-0.6-11.2c0.1-1.4,0.4-2.7-0.1-4c-0.4-1.1-1.1-2-1.5-3
			c-0.2-0.7-0.3-1.7-0.3-2.6c0-0.9,0.2-1.9,0-2.8c-0.1-0.6-0.8-1.7-1.3-1.7c-0.5-0.1-0.8,0.3-1.3,0.2c-1.1-0.2-1.4-1.2-2-2v-0.5
			c1.2-1.5,2.5-2.3,4-3.4c0.5-0.3,1-0.9,1.6-0.9c0.7,0,1.5,0.9,2.1,1.4c0.7,0.6,1.3,1.1,1.9,1.6c1.3,1.1,2.8,2.5,4.2,3
			c0.7,0.2,1.6,0.2,2.5,0.2c2.7,0,5.7,0.2,7.6-0.5c1.1-0.4,2.1-1,3-1.6c1-0.6,2-1.1,3-1.6c0.7-0.4,1.6-1.5,2.4-1.6
			c0.7-0.1,1.6,0.5,2.3,0.8c1.6,0.8,2.4,1.3,4,2.2c0.5,0.3,1.7,1,1.7,1.5c0,0.3-0.5,0.9-0.9,1.2c-0.6,0.5-1.3,1-2.1,1
			c-0.6,0-1.1-0.3-1.6-0.2c-1.1,0.2-1.5,2-1.7,3.2c-0.1,0.7-0.3,1.3-0.4,2.1C33,27.5,34.8,27.8,37,28c4.1,0.5,8.5-0.5,12.7-0.1
			c2.2-2.5,1.5-7.1,1.5-11.3c0-4.5,0.8-8.3,1-12.8C52.3,2.5,52.4,0.4,53.1,0 M11,44.9c1.5-0.2,3.6,0.2,4.7-0.1
			c0.4-0.3,1-0.4,1.3-0.8c1.3-1.3,1.3-6.9,0.4-8.6c-0.2-0.3-0.7-0.5-0.7-0.9c0-0.3,0.4-0.7,0.6-1c0.9-1.9,1-6.4-0.8-7.7
			c-1.1-0.7-2.5-0.8-4.1-0.6c-0.7,0.1-2.6,0-3.1,0.3c-0.5,0.3-0.4,1.4-0.3,2c0.3,4,0.4,8.7,0.6,13c0.1,1.5,0.1,2.9,0,4.2
			C10,45.2,10.3,45,11,44.9 M19.5,25.6c-0.2,0-0.5,0-0.6,0.2c-0.5,0.8-0.1,3.2-0.1,4.7c0,1.5,0,3.2,0,4.4c0,0.8,0.2,1.6,0.1,2.3
			c0,0.3-0.1,0.5-0.1,0.7c-0.1,1.2-0.1,2.2-0.1,3.3c-0.1,1.7,0.1,1.9,0.2,3c0.7-0.1,3.2,0.3,3.3,0c0-0.7,0.3-2.5,0.1-3.8
			c0-0.2-0.1-0.9-0.1-1.1c0-0.2,0-0.5,0-0.6c-0.1-1.2-0.1-2.8-0.1-4.4c0-1.1-0.2-2.3-0.1-3.3c0-0.2,0-0.5,0-0.7c0-0.3,0-0.4,0-0.7
			c0-0.9,0.1-1.7,0.1-2.6c0-0.4,0.1-1-0.1-1.2c-0.1-0.1-0.5-0.1-0.9-0.2C20.7,25.6,20,25.5,19.5,25.6 M24.6,27.2
			c-1,5.5-1.1,11.8-2.1,17.2c0.2,0.5,0.8,0.6,1.4,0.8c0.6,0.2,1.3,0.3,1.9,0.3c0.2-0.2,0.3-0.6,0.3-1c0-0.3,0.1-0.5,0.2-0.8
			c0.2-0.2,0.5-0.2,0.8-0.2c0.6-0.1,1.2,0,1.6,0.2c0.3,0.9,0.8,2.5,1.2,2.7c0.6,0.1,1.7,0.5,2.9,0.2c0.2-1.2-0.4-2.5-0.6-3.5
			c-0.1-0.4-0.2-1.2-0.5-1.9c-0.3-0.8-0.5-2-0.8-3.3c-0.4-1.8-0.9-3.6-1.1-5.4c-0.1-0.9-0.2-2.2-0.3-3c0-0.3-0.2-0.5-0.2-0.7
			c0-0.3,0-0.7-0.1-1c0-0.3,0-0.8-0.2-1c-0.2-0.1-1-0.2-1.4-0.3c-0.2,0-1,0.1-1.6,0.2C25.5,26.8,24.9,27,24.6,27.2 M43.3,31.4
			c-0.6,1.4-0.1,3.7,0,5.7c0.1,1.2,0.1,2.4,0,3.4c-0.2,2.9,0.4,6.2,0.1,9c-0.1,1-0.5,2.6-0.2,3.1c0.1,0.3,0.6,0.2,1.2,0.2
			c0.7,0.1,1.5,0.1,2.2,0c0.2-0.2,0.1-0.8,0.2-1.5c0.1-0.8,0-1.7,0-2c0-0.3,0-0.9,0-1.1c0-0.6-0.1-0.9-0.1-1.4
			c0-0.3,0.8-0.2,1.4,0.2c0.6,0.4,1.3,0.6,1.6,1.2c0.3,0.7,1,1.5,1.6,2.5c0.4,0.7,0.7,1.8,1.2,2.2c0.5,0.4,1.1,0.1,1.9,0.2
			c0.8,0,1.6,0.1,2.3-0.1c-0.1-1.9-2-2.8-2.5-4.3c-0.9-1.1-1.5-2-2.4-3.3c-0.3-0.4-1.5-1.9-1.5-2.3c0-0.4,0.3-1.2,0.5-1.7
			c0.2-0.6,0.6-1.1,0.8-1.5c0.2-0.6,0.3-1.3,0.4-2.1c0.1-0.5,0.3-1.1,0.4-1.6c0.1-0.6,0.2-1.2,0.4-1.7c0.2-0.6,0.6-1.4,0.6-1.7
			c0-0.2-0.9-0.5-1.9-0.4c-0.3,0-0.6,0-0.9,0c-0.4,0-0.8,0.2-0.9,0.3c-0.3,0.4-0.4,1.1-0.5,1.8c0,0.3-0.2,0.9-0.2,1.3
			c0,0.4-0.2,0.8-0.2,1.2c0,0.5,0,1.1-0.1,1.3c-0.1,0.2-0.2,0.7-0.3,1.1c-0.2,0.6-0.3,1.1-0.6,1c-0.4,0-0.3-0.4-0.2-0.8
			c0-0.4-0.2-1.1-0.3-2.1c-0.2-1.2-0.3-2.6-0.2-3.3c0-0.3-0.1-0.6-0.1-0.8c-0.1-0.8,0.2-1.2,0.1-1.9C46.4,30.9,44.4,31.1,43.3,31.4
			 M42.3,36.8c-0.1-1.5-0.6-2.6-1-3.4c-0.4-0.7-0.8-0.9-1.5-1.3c-0.5-0.1-0.9-0.2-1.3-0.2c-0.4,0-0.7,0-1.1,0
			c-0.5,0-0.9,0.2-1.2,0.3c-0.5,0.2-0.9,0.4-1.1,0.6c-1.1,0.9-1.4,2.7-1.4,4.4c0,0.2-0.1,1.1-0.1,1.9c0,0.8-0.1,1.7-0.2,2.7
			c0,1,0,2,0.1,2.8c0.1,0.7,0.3,1.6,0.5,2.1c0.2,0.4,0.9,1.2,1.7,1.5c0.3,0.1,0.9,0.1,1.3,0.1c1.1,0.1,1.9,0.3,2.8-0.2
			c1.7-0.8,2.7-4.8,1.9-6.8c-0.8-0.1-1.8,0-2.7-0.1c-0.5,0.6-0.4,3.2-0.5,3.5c-0.1,0.2-0.3,0.4-0.5,0.5c-0.2,0.2-0.4,0.2-0.7,0.2
			c-0.3,0-0.6-0.2-0.7-0.4c-0.2-0.3-0.2-0.6-0.2-0.7c-0.1-0.3,0-1.2,0.1-2.5c0.1-1.5,0.1-3.4,0.2-4.7c0.1-0.9,0.5-2.3,0.9-2.4
			c0.6-0.2,1.1,0.4,1.2,0.7c0.1,0.3,0.1,1.8,0,2.8c0.3,0.6,1,0.5,1.8,0.5c0.4,0,0.9,0,1.3,0C42.3,38.3,42.3,37.6,42.3,36.8
			 M15.8,61.9c0.7,0,2,0.1,2.7-0.1c0.5-0.1,0.9-0.1,1.4-0.3c1.3-0.5,1.8-1.5,2.4-2.5c0.1-0.5,0.3-0.8,0.3-1.3c0-0.3,0-0.5,0-0.8
			c0-0.2,0-0.5,0-0.7c0-2.2-0.2-6.1-0.6-6.6c-0.5-0.5-0.4-0.7-0.8-1.2c-0.5-0.7-1.8-1.6-3.5-1.5c-0.2,0-0.4,0.1-0.6,0.1
			c-1.3,0-3.1-0.2-4.5,0c-1.1,0.2-0.9,0.7-0.8,1.6c0.2,2.8,0.3,6.2,0.5,9.3c0,0.7,0.2,1.3,0.1,1.9c0,0.3-0.1,0.6,0,0.8
			c0,0.4,0,0.6,0.1,1C13,62.4,15,62,15.8,61.9 M24.3,48.4c-0.1,0.2-0.2,0.5-0.3,0.8c-0.6,1.2-0.7,3.2-0.7,5.2c0,3,0.1,6.2,1.8,7.2
			c0.9,0.6,2.8,0.7,3.9,0.2c1.7-0.7,1.7-4.2,1.7-4.4c0-0.2,0.2-0.4,0.2-0.6c0.1-1,0-2.5-0.1-3.8c-0.1-1.3,0-2.7-0.3-3.5
			c-0.1-0.5-0.2-0.3-0.6-1.2c-0.2-0.5-1.4-1.1-2.6-1.1C26.1,47.2,24.8,47.6,24.3,48.4 M38.9,54.1c0.1-0.1,0.2-0.2,0.3-0.3
			c0,0,0-0.2,0-0.5c0-1-0.7-3-2-3.2c-1.4-0.8-3.4-0.4-4.3,0.7c-0.8,0.9-0.7,2.4-0.8,2.9c-0.1,1.2-0.2,2.1-0.2,3.4
			c-0.1,2.1,0,4.7,1.2,5.6c0.7,0.5,2.1,0.5,2.9,0.3c0.6-1.2,2,0.5,2.8-0.1c0.4-0.3,0.2-1.2,0.2-1.8c-0.1-1.7,0.5-4,0-5.3
			c-1,0.2-2.4-0.3-3.3,0.1c-0.1,0.4-0.1,0.9-0.1,1.5c0,0.2,0.2,0.2,0.3,0.2c0.1,0.1,0.1,0.5,0.3,0.9c0.1,0.1,0.1,0.3,0.1,0.5
			c0,0.1,0,0.5-0.1,0.9c-0.1,0.3-0.1,0.7-0.2,0.7c-0.2,0.1-1.2-0.4-1.5-0.9c-0.2-0.3-0.1-0.5,0-0.8c0-0.3-0.1-2.1,0.1-3.4
			c0.1-0.6,0-2.3,0.2-2.7c0.1-0.3,0.4-0.9,0.6-0.9c0.2-0.1,1.3,0.8,1.2,1.8C37.1,54.1,38.8,54.1,38.9,54.1 M16.5,65.5
			c-0.5-0.8-1.9-0.6-3.1-0.6c-0.1,0-0.1,0.1-0.2,0.2c0,1.9-0.2,4.7,0,6.6c1.1-0.1,2.8,0.4,3.4-0.5c0.5-0.8,0.2-2.4-0.3-3.1
			C16.7,67.5,16.9,66.2,16.5,65.5 M19.8,64.9c-0.7-0.1-1.8,0-2.3,0.2c0.1,0.5-0.1,1.3,0.1,1.7c0.1,0.2-0.3,3.7,0,4.9
			c0.3,0,0.8,0,1.2,0.1c0.4-0.8,0-2.1,0.1-2.8c0.2,0.1,0.5,0,0.7,0.1c0.5,0.5-0.1,2.2,0.5,2.7c0.3,0,0.8,0.1,1.1,0
			c0-1,0-2.6-0.5-3.3C21.5,67.4,21.3,65,19.8,64.9 M21.8,65.2c0.1,2.2-0.1,4.5,0,6.4c0.8,0.2,2.1,0.1,3.1,0.2
			c0.2-0.2,0.2-0.8,0.2-1.2c-0.5-0.2-1.1,0-1.7-0.1c-0.6-0.3-0.1-1-0.4-1.5c0.6,0,1-0.1,1.6-0.1c0.2-0.3,0.1-0.9,0.1-1.2
			c-0.5-0.3-1.2,0.2-1.5-0.3c0-0.2-0.2-1.1,0.2-1.2c0.5-0.1,1.1,0.2,1.6,0c0.2-0.3,0.3-0.9,0.1-1.3C24.1,65.1,22.5,64.7,21.8,65.2
			 M26.9,65.3c-0.2-0.3-1-0.4-1.3-0.1c0.2,1.3,0.4,2.5,0.6,3.8c0,0.2,0,0.2,0.1,0.4c0.2,0.8,0.3,1.6,0.4,2.4
			c0.4,0.1,0.9,0.2,1.2-0.1c0.3-1.2,0-2.3,0.8-3c0.5,0.7,0.4,2,0.6,3c0.4,0.1,1,0.2,1.3-0.1c0.3-2.2,0.8-4.4,1-6.5
			c-0.2-0.2-0.8-0.1-1.1-0.1c-0.2,1-0.4,2-0.4,3.1c-0.2,0.1-0.3,0.1-0.4-0.1c-0.1-0.2-0.2-1.2-0.3-1.3c-0.2-0.4,0-1.2-0.2-1.7
			c-0.3-0.2-0.8-0.1-1,0c-0.1,0.7-0.4,2.2-0.3,2.4c0,0.3,0,1.1-0.6,0.8C27,67.5,26.9,66.5,26.9,65.3 M35.5,65.2
			c-0.6,0.2-1.2,1.1-1.2,2c0.1,1.1-0.2,3.3,0.2,4c0.4,0.7,1.7,0.9,2.4,0.6c0.8-0.4,1.1-1.7,0.8-2.8c-0.3-0.1-1-0.1-1.2,0.1
			c-0.1,0.6,0.1,1.8-0.6,1.6c-0.2,0-0.5-0.3-0.4-0.5c0.1-0.3-0.2-3.8,0.4-3.9c0.1,0,0.3-0.1,0.4,0.1c0.2,0.3,0.2,1,0.3,1.4
			c0.3,0.2,1,0.1,1.3,0C38.2,66.1,37.3,64.6,35.5,65.2 M39.2,69.3c1.6,0.4,1.3-2.4,0.9-3.3C38.1,64.7,38.1,69,39.2,69.3 M40.6,69.2
			c0.2,0.1,0.4,0.2,0.6,0.1c0.1-0.2,0.1-0.5,0.1-0.9C40.9,68,40.5,68.5,40.6,69.2 M75.7,10.1c-1.4,1-2.5,2.2-4.2,3.7
			c-1,0.9-2.1,1.9-3.1,2.8c-0.3,0.3-1,0.7-1,1c0,0.6,1.1,0.9,1.3,1.3c-1.6,1.6-3.8,3.4-5.7,5c-0.3,0.3-1.9,1.3-1.8,1.9
			c0.1,0.4,1,0.7,1.4,0.9c0.6,0.3,1,0.6,1.5,0.9c-1.3,1.8-2.7,3.6-4,5.4c-0.4,0.5-1.2,1.2-1,2c0.6,0.2,1.1-0.4,1.5-0.7
			c2.6-2,5.3-3.9,8-5.9c0.2-0.2,1.2-0.8,1.2-1.2c0-0.3-0.8-0.6-1-0.8c-0.5-0.3-0.8-0.5-1.1-0.8c2.2-2,4.9-4.4,7.2-6.4
			c0.3-0.2,0.9-0.8,0.9-1.1c-0.1-0.4-1.1-0.7-1.5-0.9c-0.6-0.3-1-0.7-1.5-0.9c1-1.5,2-3,3-4.5c0.3-0.5,1-0.9,0.8-1.6
			C75.9,9.9,75.8,10,75.7,10.1 M14.4,115.1c0.1-0.4-0.1-0.9-0.1-1.2c0.1-1.5,0.5-3.2,0.8-4.9c0.3-1.7,0.3-3.6,0.8-4.9
			c0.3-0.9,1.2-1.5,1.6-2.3c0.6-1.3,0.6-3.4,0.8-5.1c0.3-4.7,0.7-9.2,0.9-13.6c0-0.9,0.2-2.1,0-2.7c-0.4-1-1.3-1-2.6-1.1
			c-1.3-0.1-2.4-0.2-3.7-0.2c-0.6,0-1.3-0.2-1.9-0.1c-1.2,0.3-1.3,1.9-1.3,3.3c-0.3,5.3-0.8,11-1.2,16c0,0.6,0,1.4,0,1.9
			c0.1,1.3,0.9,2.1,1.3,3c0.6,1.5,0.4,3.9,0.4,6.3c0,1.7,0.3,3.5,0.1,4.6c-0.1,0.4-0.3,0.6-0.3,1c0,0.3,0.2,0.6,0.3,0.9
			c1.2,0.1,2.5,0.2,3.7,0.3C13.9,115.7,14.3,115.4,14.4,115.1 M14.3,116.4c-1.5,0-3-0.3-4.4-0.2c-0.2,1.3,0.8,1.4,1.9,1.5h1.9
			C14.1,117.4,14.3,117,14.3,116.4"/>
	</g>
	<polygon points="49,118.2 49.1,143.3 69.6,132.1 69.5,106.9 	"/>
	<g>
		<path d="M0,118.5v24.8h47.5v-24.8H0z M35.1,123l0.1,1.1l-1.4,0.1l0.1,0.8l1.4-0.1l0.1,1.1l-1.4,0.1l0.1,0.8l1.4-0.1l0.1,1.1
			l-2.6,0.2l-0.4-5.1L35.1,123z M31.1,123.3l0.8,0.7l0.1,1.3l-0.5,0.5l0.5,0.5l0.1,2l-1.1,0.1l-0.1-2l-0.6,0l0.1,2l-1.1,0.1
			l-0.4-5.1L31.1,123.3z M18.5,124.2l0.8,0.7l0.1,1.3l-0.5,0.5l0.5,0.5l0.1,2l-1.1,0.1l-0.1-2l-0.6,0l0.1,2l-1.1,0.1l-0.4-5.1
			L18.5,124.2z M15.7,124.4l0.4,5.1l-1.1,0.1l-0.4-5.1L15.7,124.4z M11.9,124.7l1.5-0.1l1.3,5l-1.1,0.1l-0.2-0.7l-0.8,0.1l-0.1,0.7
			l-1.1,0.1L11.9,124.7z M9.4,124.8l0.3,3.9l1.4-0.1l0.1,1.1L8.6,130l-0.4-5.1L9.4,124.8z M6.8,125l0.8,0.7l0.1,1.3l-0.5,0.5
			l0.6,0.5l0.1,1.2l-0.8,0.9l-2.2,0.2l-0.4-5.1L6.8,125z M9.3,137.1L8,137.2l-0.4-1.6l-0.2,1.7l-1.3,0.1l-1.4-5.5l1.3-0.1l0.8,2.8
			l0.2-2.9l0.7,0l0.6,2.8l0.4-2.9l1.3-0.1L9.3,137.1z M10.8,137l-0.4-5.6l2.8-0.2l0.1,1.3l-1.6,0.1l0.1,0.9l1.6-0.1l0.1,1.3
			l-1.6,0.1l0.1,0.9l1.6-0.1l0.1,1.3L10.8,137z M14.4,136.8l-0.4-5.6l1.3-0.1l0.3,4.3l1.6-0.1l0.1,1.3L14.4,136.8z M17.8,136.5
			l-0.4-5.6l1.3-0.1l0.3,4.3l1.6-0.1l0.1,1.3L17.8,136.5z M21.3,136.3l-0.4-5.6l1.3-0.1l0.4,5.6L21.3,136.3z M22.1,128.3l-0.1-0.8
			l1.1-0.1l0,0.4l0.6,0l-0.1-0.8l-1.1,0.1l-0.8-0.7l-0.1-1.6l0.7-0.8l1.5-0.1l0.8,0.7l0.1,0.8l-1.1,0.1l0-0.4l-0.6,0l0.1,0.8
			l1.1-0.1l0.8,0.7l0.1,1.6l-0.7,0.8l-1.5,0.1L22.1,128.3z M25.3,136l-0.9-2l0.1,2l-1.3,0.1l-0.4-5.6l1.2-0.1l0.9,2l-0.1-2l1.3-0.1
			l0.4,5.6L25.3,136z M26.3,124.8l-1.1,0.1l-0.1-1.1l3.3-0.2l0.1,1.1l-1.1,0.1l0.3,3.9l-1.1,0.1L26.3,124.8z M29.8,135.7l-1.6,0.1
			l-0.9-0.8l-0.3-4l0.8-0.9l1.6-0.1l0.9,0.8l0.1,1.2l-1.3,0.1l-0.1-0.8l-0.7,0l0.2,3.1l0.7,0l0-0.5l-0.4,0l-0.1-1.3l1.7-0.1l0.2,2.2
			L29.8,135.7z M33.6,135.4l-1.3,0.1l-0.3-4.3l-1.2,0.1l-0.1-1.3l3.6-0.3l0.1,1.3l-1.2,0.1L33.6,135.4z M37.8,135.1l-1.6,0.1
			l-0.9-0.8l-0.3-4l0.8-0.9l1.6-0.1l0.9,0.8l0.3,4L37.8,135.1z M36.1,128.1l-0.4-5.1l2.6-0.2l0.1,1.1l-1.4,0.1l0.1,0.8l1.4-0.1
			l0.1,1.1l-1.4,0.1l0.1,0.8l1.4-0.1l0.1,1.1L36.1,128.1z M38.7,122.8l3.3-0.2l0.1,1.1l-1.1,0.1l0.3,3.9l-1.1,0.1l-0.3-3.9l-1.1,0.1
			L38.7,122.8z M41.4,134.9l-0.9-2l0.1,2l-1.3,0.1l-0.4-5.6l1.2-0.1l0.9,2l-0.1-2l1.3-0.1l0.4,5.6L41.4,134.9z"/>
		
			<rect x="36.5" y="130.9" transform="matrix(0.9976 -6.985024e-02 6.985024e-02 0.9976 -9.1582 2.8965)" width="0.7" height="3.1"/>
		<rect x="6" y="128.2" transform="matrix(0.9976 -6.988095e-02 6.988095e-02 0.9976 -8.9704 0.7547)" width="0.6" height="0.8"/>
		<rect x="5.8" y="126.2" transform="matrix(0.9976 -6.927042e-02 6.927042e-02 0.9976 -8.7561 0.7311)" width="0.6" height="0.8"/>
		<polygon points="12.7,126.5 12.6,127.8 13,127.8 		"/>
		<rect x="30.2" y="124.5" transform="matrix(0.9976 -6.927042e-02 6.927042e-02 0.9976 -8.58 2.4111)" width="0.6" height="0.8"/>
		<rect x="17.6" y="125.4" transform="matrix(0.9976 -6.927042e-02 6.927042e-02 0.9976 -8.6709 1.544)" width="0.6" height="0.8"/>
	</g>
</g>
</svg>
